<?xml version="1.0" encoding="utf-8"?>
<!-- Generator: Adobe Illustrator 23.0.3, SVG Export Plug-In . SVG Version: 6.00 Build 0)  -->
<svg version="1.1" id="圖層_1" xmlns="http://www.w3.org/2000/svg" xmlns:xlink="http://www.w3.org/1999/xlink" x="0px" y="0px"
	 viewBox="0 0 500 500" style="enable-background:new 0 0 500 500;" xml:space="preserve">
<style type="text/css">
	.st0{fill:#191919;}
	.st1{fill:#3D3D3D;}
	.st2{fill:#2671C7;}
	.st3{opacity:0.6;}
	.st4{opacity:0.3;enable-background:new    ;}
	.st5{opacity:0.5;enable-background:new    ;}
	.st6{fill:#263238;}
	.st7{opacity:0.7;enable-background:new    ;}
	.st8{fill:#111111;}
	.st9{fill:#222222;}
	.st10{opacity:0.4;}
	.st11{fill:#FFFFFF;}
	.st12{opacity:0.15;enable-background:new    ;}
	.st13{opacity:0.5;fill:#FFFFFF;enable-background:new    ;}
	.st14{fill:#455A64;}
	.st15{fill:#37474F;}
	.st16{fill:#FAFAFA;}
	.st17{opacity:0.4;fill:#FFFFFF;enable-background:new    ;}
	.st18{opacity:0.2;enable-background:new    ;}
	.st19{opacity:0.1;enable-background:new    ;}
	.st20{fill:#FFA8A7;}
	.st21{fill:#F28F8F;}
	.st22{opacity:0.4;enable-background:new    ;}
</style>
<g id="freepik--Floor--inject-5">
	<ellipse id="freepik--floor--inject-5" class="st0" cx="249.1" cy="350" rx="235.6" ry="136"/>
</g>
<g id="freepik--Shadow--inject-5">
	<path id="freepik--shadow--inject-5" class="st1" d="M384.4,397.2c-15.5-8.9-15.5-23.4,0-32.3s40.5-8.9,56,0s15.5,23.4,0,32.3
		S399.8,406.1,384.4,397.2z"/>
	<path class="st1" d="M70.1,398.5L29.5,375c-2.3-1.3-2.3-3.5,0-4.8l236.4-136.5c2.6-1.3,5.7-1.3,8.3,0l40.6,23.5
		c2.3,1.3,2.3,3.5,0,4.8L78.4,398.5C75.8,399.8,72.7,399.8,70.1,398.5z"/>
</g>
<g id="freepik--Device--inject-5">
	<g id="freepik--device--inject-5">
		<path class="st2" d="M216.2,356.6l34.9-20.2c3.6-2.1,5.4-4.8,5.4-7.5s0-4.9,0-4.9l-36.2-20.4c-2.1-1.3-3.3-3.6-3.5-6v-43.1
			l-61,35.3v43.1c0.1,2.4,1.4,4.7,3.5,6l30.8,17.8C197.3,360.8,209,360.8,216.2,356.6z"/>
		<g class="st3">
			<path d="M216.2,356.6l34.9-20.2c3.6-2.1,5.4-4.8,5.4-7.5s0-4.9,0-4.9l-36.2-20.4c-2.1-1.3-3.3-3.6-3.5-6v-43.1l-61,35.3v43.1
				c0.1,2.4,1.4,4.7,3.5,6l30.8,17.8C197.3,360.8,209,360.8,216.2,356.6z"/>
		</g>
		<path class="st4" d="M170.4,340.5v4.8l-11.2-6.5c-2-1.3-3.3-3.6-3.5-6v-43.1l11.6-6.7c0.2,3,0.5,6,0.8,9l-8.2,4.7v33.6
			c0.1,2.4,1.4,4.7,3.5,6L170.4,340.5z"/>
		<path class="st2" d="M160,330.4c0.1,2.4,1.4,4.7,3.5,6l26.6,15.3c7.2,4.1,18.9,4.2,26.1,0l35-20.2c7.2-4.2,7.2-10.9,0-15.1
			l-26.6-15.3c-2-1.3-3.3-3.6-3.5-6v-33.7l-61,35.3L160,330.4z"/>
		<path class="st4" d="M160,330.4c0.1,2.4,1.4,4.7,3.5,6l26.6,15.3c7.2,4.1,18.9,4.2,26.1,0l35-20.2c7.2-4.2,7.2-10.9,0-15.1
			l-26.6-15.3c-2-1.3-3.3-3.6-3.5-6v-33.7l-61,35.3L160,330.4z"/>
		<path class="st5" d="M231.6,305.3L231.6,305.3l-7.1-4.1c-2-1.3-3.3-3.6-3.5-6v-33.7l-61,35.3v33.7c0.1,2.4,1.4,4.7,3.5,6l7,4
			L231.6,305.3z"/>
		<path class="st2" d="M256.5,324.1v4.9c0,2.7-1.8,5.4-5.4,7.5l-35,20.2c-3.8,2-8.1,3.1-12.4,3.1v-4.8c4.3,0,8.6-1,12.4-3.1l35-20.2
			C254.7,329.5,256.5,326.8,256.5,324.1z"/>
		<path class="st5" d="M256.5,324.1v4.9c0,2.7-1.8,5.4-5.4,7.5l-35,20.2c-3.8,2-8.1,3.1-12.4,3.1v-4.8c4.3,0,8.6-1,12.4-3.1l35-20.2
			C254.7,329.5,256.5,326.8,256.5,324.1z"/>
		<path class="st2" d="M62,372.3c2.7,1.3,5.8,1.2,8.4-0.1l236-136.3c2.6-1.7,4.2-4.5,4.4-7.5V37.4c-0.1-3-1.6-5.7-4.1-7.4
			c-2.7-1.3-5.8-1.2-8.4,0.2l-236,136.3c-2.6,1.7-4.2,4.5-4.3,7.6v190.9C58.1,367.8,59.6,370.6,62,372.3z"/>
		<path class="st2" d="M70.5,372.1l236-136.3c2.6-1.7,4.2-4.5,4.4-7.5V37.4c0-2.8-2-3.9-4.4-2.5l-236,136.3
			c-2.6,1.7-4.2,4.5-4.3,7.5v190.9C66.1,372.4,68.1,373.5,70.5,372.1z"/>
		<path class="st5" d="M70.5,372.1l236-136.3c2.6-1.7,4.2-4.5,4.4-7.5V37.4c0-2.8-2-3.9-4.4-2.5l-236,136.3
			c-2.6,1.7-4.2,4.5-4.3,7.5v190.9C66.1,372.4,68.1,373.5,70.5,372.1z"/>
		<path class="st2" d="M69.8,377.1c-2.5,1.1-5.4,1-7.8-0.2c-2.4-1.7-3.9-4.4-4-7.4v-17.4l8.2,4.7v17.4
			C66.1,376.8,67.7,377.9,69.8,377.1z"/>
		<path class="st5" d="M69.8,377.1c-2.5,1.1-5.4,1-7.8-0.2c-2.4-1.7-3.9-4.4-4-7.4v-17.4l8.2,4.7v17.4
			C66.1,376.8,67.7,377.9,69.8,377.1z"/>
		<path class="st2" d="M66.1,356.9v17.4c0,2.8,2,3.9,4.3,2.5l236-136.3c2.6-1.7,4.2-4.4,4.3-7.5v-17.5L66.1,356.9z"/>
		<path class="st4" d="M66.1,356.8v17.4c0,2.8,2,3.9,4.3,2.5l236-136.3c2.6-1.7,4.2-4.4,4.3-7.5v-17.5L66.1,356.8z"/>
		<path class="st2" d="M74.3,335V181.4c0.1-1.8,1.1-3.5,2.6-4.5L300,48c1.4-0.8,2.6-0.2,2.6,1.5v153.7c-0.1,1.8-1.1,3.5-2.6,4.5
			L76.9,336.5C75.4,337.4,74.3,336.7,74.3,335z"/>
		<path class="st6" d="M74.3,335V181.4c0.1-1.8,1.1-3.5,2.6-4.5L300,48c1.4-0.8,2.6-0.2,2.6,1.5v153.7c-0.1,1.8-1.1,3.5-2.6,4.5
			L76.9,336.5C75.4,337.4,74.3,336.7,74.3,335z"/>
		<path class="st2" d="M188.4,291.7c-2.4,1.6-3.9,4.2-4.1,7.1c0,2.6,1.8,3.7,4.1,2.4c2.4-1.6,3.9-4.2,4.1-7.1
			C192.5,291.5,190.7,290.4,188.4,291.7z"/>
		<path class="st7" d="M67.4,174.4c-0.8,1.3-1.2,2.8-1.3,4.3v178.2l-8.1-4.7V174c0.1-1.5,0.5-3,1.3-4.3L67.4,174.4z"/>
		<path class="st4" d="M310.8,36.7c-0.3-2.2-2.1-3-4.3-1.8l-236,136.3c-1.3,0.8-2.3,1.9-3.1,3.2l-8.2-4.7c0.7-1.3,1.8-2.4,3.1-3.2
			l236-136.2c2.6-1.4,5.8-1.5,8.4-0.2C309,31.6,310.4,34,310.8,36.7z"/>
	</g>
</g>
<path class="st2" d="M323.5,60.2c-0.7-0.4-1.6-0.3-2.2,0.2L98.6,189c-1.8,1.2-2.9,3.1-3,5.3v152.7c-0.1,1,0.4,2.1,1.3,2.6
	c0.5,0.3,3.1,1.8,3.9,2.2c0.6,0.3,1.2,0.2,1.8-0.1l222.6-128.6c1.8-1.2,2.9-3.1,3-5.3V64.3c0.1-0.8-0.3-1.6-0.9-2
	C326.7,62,324,60.5,323.5,60.2z"/>
<path class="st8" d="M102.5,191.2L325.2,62.6c1.7-1,3-0.2,3,1.8v153.5c-0.1,2.1-1.2,4.1-3,5.3L102.5,351.7c-1.7,1-3-0.6-3-2.5V196.4
	C99.6,194.3,100.7,192.3,102.5,191.2z"/>
<path class="st9" d="M326.5,63.1L326.5,63.1c0.6,0,0.7,0.7,0.7,1.2v153.5c-0.1,1.8-1.1,3.4-2.5,4.4L102,350.8
	c-0.1,0.1-0.3,0.2-0.5,0.2c-0.6,0-1-0.9-1-1.8V196.4c0.1-1.8,1-3.4,2.5-4.4L325.7,63.4C325.9,63.3,326.2,63.2,326.5,63.1
	 M326.5,62.1c-0.5,0-1,0.2-1.4,0.4L102.5,191.2c-1.8,1.2-2.9,3.1-3,5.3v152.7c0,1.5,0.9,2.8,2,2.8c0.4,0,0.7-0.1,1-0.3l222.7-128.6
	c1.8-1.2,2.9-3.1,3-5.3V64.3C328.2,62.9,327.5,62.1,326.5,62.1L326.5,62.1z"/>
<path class="st8" d="M96.8,349.6c0.3,0.2,2.7,1.5,3.7,2.1c-0.8-0.6-1.2-1.6-1.1-2.6V206.4l-3.9-2.3v142.8
	C95.5,348,96,349,96.8,349.6z"/>
<path class="st2" d="M328.2,64.3c0-1.9-1.4-2.7-3-1.7L102.5,191.2c-1.8,1.2-2.9,3.1-3,5.3v10L328.2,74.3V64.3z"/>
<g class="st10">
	<path class="st11" d="M325.2,62.6L102.5,191.1c-0.9,0.6-1.6,1.3-2.1,2.3l-3.9-2.3c0.5-0.9,1.2-1.6,2.1-2.2L321.3,60.4
		c0.6-0.5,1.5-0.5,2.2-0.2c0.5,0.3,3.1,1.8,3.7,2.1C326.5,62,325.8,62.1,325.2,62.6z"/>
</g>
<path class="st12" d="M95.5,204.1v-9.9c0-1.1,0.4-2.1,0.9-3.1l3.9,2.2c-0.6,0.9-0.9,1.9-0.9,3v10L95.5,204.1z"/>
<path class="st2" d="M281.3,179.4l-133.4,77c-1.3,0.9-2.1,2.3-2.2,3.9v38.2c0.1,1.6,0.9,3,2.2,3.9l3.9,2.2c1.4,0.7,3.1,0.7,4.5,0
	l133.4-77c1.3-0.9,2.1-2.3,2.2-3.9v-38.3c-0.1-1.6-0.9-3-2.2-3.9l-3.9-2.2C284.3,178.7,282.6,178.7,281.3,179.4z"/>
<path class="st13" d="M291.8,185.1c-0.2-1.1-1.1-1.6-2.2-0.9l-133.4,77c-0.7,0.4-1.2,1-1.6,1.7l-8.4-4.8c0.4-0.7,0.9-1.2,1.6-1.6
	l133.4-77c1.4-0.7,3.1-0.7,4.5,0l3.9,2.2C290.8,182.5,291.6,183.7,291.8,185.1z"/>
<path class="st6" d="M155.9,304.8c-1.3,0.5-2.8,0.5-4.1-0.2l-3.9-2.2c-1.3-0.9-2.1-2.3-2.2-3.9v-38.2c0-0.8,0.3-1.5,0.7-2.2l8.4,4.8
	c-0.4,0.7-0.6,1.4-0.7,2.2v38.3C154,304.6,154.8,305.2,155.9,304.8z"/>
<path class="st2" d="M156.2,261.2l133.4-77c1.2-0.7,2.2-0.1,2.2,1.3v38.3c-0.1,1.6-0.9,3-2.2,3.9l-133.4,77
	c-1.2,0.7-2.2,0.1-2.2-1.3v-38.2C154.1,263.5,154.9,262.1,156.2,261.2z"/>
<path class="st14" d="M245.9,199.8l-98,56.6c-0.6,0.4-1.2,1-1.6,1.6l8.4,4.8c0.4-0.7,0.9-1.3,1.6-1.7l98-56.6L245.9,199.8z"/>
<path class="st15" d="M254.2,204.6l-98,56.6c-1.3,0.9-2.1,2.3-2.2,3.9v38.2c0,1.4,1,2,2.2,1.3l98-56.6V204.6z"/>
<path class="st2" d="M178.8,256.6l50.6-29.2c2.1-1.2,3.8-0.4,3.8,1.9c-0.2,2.6-1.6,4.9-3.8,6.3l-50.6,29.2c-2.1,1.2-3.8,0.4-3.8-1.9
	C175.2,260.3,176.6,257.9,178.8,256.6z"/>
<path class="st16" d="M189.2,266.2c0,0,0.1,0,0.1,0c0,0,0,0,0,0c0,0.1,0.1,0.1,0.1,0.2v5.7c0,0.5,0,1.1-0.1,1.6
	c-0.1,0.5-0.2,1-0.4,1.4c-0.2,0.4-0.4,0.8-0.7,1.2c-0.3,0.3-0.6,0.6-1,0.8c-0.3,0.2-0.6,0.3-1,0.3c-0.3,0-0.5-0.2-0.7-0.4
	c-0.2-0.3-0.4-0.6-0.4-1c-0.1-0.5-0.1-1-0.1-1.5V269c0-0.1,0-0.2,0.1-0.3c0-0.1,0.1-0.2,0.1-0.2l0.6-0.4c0,0,0.1,0,0.1,0
	c0,0.1,0.1,0.1,0.1,0.2v5.6c0,0.3,0,0.6,0.1,0.9c0,0.2,0.1,0.4,0.2,0.5c0.1,0.1,0.2,0.2,0.4,0.2c0.2,0,0.3-0.1,0.5-0.2
	c0.2-0.1,0.3-0.2,0.5-0.4c0.2-0.2,0.3-0.4,0.4-0.6c0.1-0.3,0.2-0.5,0.3-0.8c0.1-0.3,0.1-0.7,0.1-1V267c0-0.1,0-0.2,0.1-0.3
	c0-0.1,0.1-0.2,0.1-0.2L189.2,266.2z"/>
<path class="st16" d="M193.1,271.6c0-0.1,0-0.1-0.1-0.2c0-0.1-0.1-0.1-0.2-0.1c-0.1,0-0.2,0-0.4,0l-0.6,0.1c-0.2,0-0.4,0-0.6,0
	c-0.1,0-0.3-0.1-0.4-0.3c-0.1-0.2-0.2-0.3-0.2-0.5c-0.1-0.5-0.1-1.1,0-1.6c0.1-0.3,0.2-0.6,0.3-0.9c0.1-0.3,0.3-0.6,0.5-0.8
	c0.2-0.2,0.4-0.4,0.7-0.6c0.2-0.1,0.4-0.2,0.7-0.2c0.2,0,0.4,0,0.5,0.1c0.1,0.1,0.3,0.2,0.3,0.4c0.1,0.2,0.1,0.4,0.1,0.6
	c0,0.1,0,0.2-0.1,0.3c0,0.1-0.1,0.2-0.1,0.2l-0.6,0.4c-0.1,0-0.1,0-0.2,0l-0.1-0.1c-0.1,0-0.1-0.1-0.2-0.1c-0.1,0-0.3,0.1-0.4,0.1
	c-0.2,0.1-0.3,0.2-0.4,0.4c-0.1,0.2-0.2,0.4-0.2,0.5c0,0.1,0,0.2,0,0.2c0,0.1,0.1,0.1,0.2,0.1c0.1,0,0.2,0,0.3,0l0.6-0.1
	c0.5-0.1,0.8,0,1,0.3c0.2,0.4,0.3,0.8,0.3,1.2c0,0.3,0,0.6-0.1,0.9c-0.1,0.3-0.2,0.6-0.3,0.9c-0.1,0.3-0.3,0.6-0.6,0.8
	c-0.2,0.2-0.5,0.4-0.7,0.6c-0.2,0.1-0.5,0.2-0.7,0.3c-0.2,0-0.4,0-0.5-0.1c-0.2-0.1-0.3-0.3-0.3-0.4c-0.1-0.2-0.1-0.4-0.1-0.6
	c0-0.1,0-0.2,0.1-0.3c0-0.1,0.1-0.2,0.1-0.2l0.6-0.4c0.1,0,0.1,0,0.2,0l0.1,0.1c0.1,0.1,0.1,0.1,0.2,0.1c0.1,0,0.3,0,0.4-0.1
	c0.2-0.1,0.3-0.2,0.5-0.4c0.1-0.1,0.1-0.2,0.2-0.3C193,271.8,193.1,271.7,193.1,271.6z"/>
<path class="st16" d="M195.1,268.9c0-0.5,0-1,0.1-1.5c0.1-0.5,0.2-1,0.4-1.4c0.1-0.4,0.3-0.8,0.6-1.1c0.2-0.3,0.5-0.6,0.8-0.8
	c0.2-0.2,0.5-0.2,0.8-0.2c0.2,0.1,0.5,0.2,0.6,0.4c0.2,0.3,0.3,0.6,0.4,0.9c0.1,0.4,0.1,0.8,0.1,1.3v0.6c0,0.1,0,0.2-0.1,0.3
	c0,0.1-0.1,0.2-0.1,0.2l-2.6,1.5c0,0.2,0,0.4,0.1,0.5c0,0.1,0.1,0.2,0.2,0.3c0.1,0.1,0.2,0.1,0.3,0.1c0.1,0,0.2-0.1,0.3-0.1
	c0.2-0.1,0.3-0.2,0.4-0.3c0.1-0.1,0.2-0.2,0.3-0.4c0-0.1,0.1-0.2,0.1-0.2c0-0.1,0.1-0.1,0.1-0.1l0.6-0.4c0,0,0.1,0,0.1,0
	c0.1,0.1,0.1,0.1,0.1,0.2c0,0.2-0.1,0.4-0.1,0.6c-0.1,0.3-0.2,0.5-0.3,0.8c-0.2,0.3-0.3,0.6-0.6,0.8c-0.2,0.3-0.5,0.5-0.8,0.6
	c-0.2,0.2-0.5,0.2-0.8,0.2c-0.2-0.1-0.5-0.2-0.6-0.4c-0.2-0.3-0.3-0.6-0.4-1C195.2,269.8,195.1,269.4,195.1,268.9z M197.1,265.7
	c-0.2,0.1-0.3,0.2-0.4,0.3c-0.1,0.1-0.2,0.3-0.3,0.5c-0.1,0.2-0.1,0.3-0.2,0.5c0,0.2-0.1,0.3-0.1,0.5l1.8-1c0-0.1,0-0.3-0.1-0.4
	c0-0.1-0.1-0.2-0.1-0.3c-0.1-0.1-0.2-0.1-0.3-0.2C197.3,265.6,197.2,265.6,197.1,265.7L197.1,265.7z"/>
<path class="st16" d="M202.1,262.9c-0.3,0.2-0.5,0.4-0.7,0.8c-0.2,0.4-0.2,0.9-0.2,1.3v3.6c0,0.1,0,0.2-0.1,0.3
	c0,0.1-0.1,0.2-0.1,0.2l-0.6,0.3c0,0-0.1,0-0.1,0c0,0,0,0,0,0c0-0.1-0.1-0.1-0.1-0.2v-6.5c0-0.1,0-0.2,0.1-0.3
	c0-0.1,0.1-0.2,0.1-0.2l0.6-0.3c0,0,0.1,0,0.1,0c0,0.1,0.1,0.1,0.1,0.2v0.3c0.1-0.3,0.3-0.5,0.4-0.8c0.2-0.2,0.4-0.4,0.6-0.5
	l0.4-0.2c0,0,0.1,0,0.1,0c0,0.1,0.1,0.1,0.1,0.2v0.9c0,0.1,0,0.2-0.1,0.3c0,0.1-0.1,0.1-0.1,0.2L202.1,262.9z"/>
<path class="st16" d="M209.6,262.5c0,0,0.1,0,0.1,0c0,0,0,0,0,0c0,0.1,0.1,0.1,0.1,0.2v1c0,0.1,0,0.2-0.1,0.3c0,0.1-0.1,0.1-0.1,0.2
	l-3.4,2c0,0-0.1,0-0.1,0c0-0.1-0.1-0.1-0.1-0.2v-9c0-0.1,0-0.2,0.1-0.3c0-0.1,0.1-0.1,0.1-0.2l0.6-0.4c0,0,0.1,0,0.1,0
	c0,0.1,0.1,0.1,0.1,0.2v7.6L209.6,262.5z"/>
<path class="st16" d="M212.7,255c0.2-0.2,0.5-0.2,0.8-0.2c0.2,0,0.5,0.1,0.6,0.3c0.2,0.2,0.3,0.5,0.4,0.7c0.1,0.4,0.2,0.7,0.2,1.1
	c0,0.1,0,0.2,0,0.3v0.8c0,0.1,0,0.2,0,0.3c0,0.4-0.1,0.9-0.2,1.3c-0.1,0.4-0.2,0.8-0.4,1.2c-0.2,0.4-0.4,0.7-0.6,1
	c-0.2,0.3-0.5,0.5-0.8,0.7c-0.2,0.2-0.5,0.2-0.8,0.2c-0.2,0-0.4-0.1-0.6-0.3c-0.2-0.2-0.3-0.5-0.4-0.7c-0.1-0.4-0.2-0.7-0.2-1.1
	c0-0.1,0-0.2,0-0.3v-0.8c0-0.1,0-0.2,0-0.3c0-0.4,0.1-0.9,0.2-1.3c0.1-0.4,0.2-0.8,0.4-1.2c0.2-0.4,0.4-0.7,0.6-1
	C212.1,255.5,212.4,255.2,212.7,255z M213.6,257.6c0-0.2,0-0.4-0.1-0.6c0-0.1-0.1-0.2-0.2-0.3c-0.1-0.1-0.2-0.1-0.3-0.1
	c-0.1,0-0.2,0.1-0.3,0.1c-0.1,0.1-0.2,0.1-0.3,0.2c-0.1,0.1-0.2,0.3-0.3,0.4c-0.1,0.2-0.2,0.4-0.2,0.6c-0.1,0.3-0.1,0.5-0.1,0.8
	c0,0.1,0,0.2,0,0.3v0.7c0,0.1,0,0.2,0,0.3c0,0.2,0,0.4,0.1,0.6c0,0.1,0.1,0.2,0.2,0.3c0.1,0.1,0.2,0.1,0.3,0.1
	c0.1,0,0.2-0.1,0.3-0.1c0.1-0.1,0.2-0.1,0.3-0.2c0.1-0.1,0.2-0.3,0.3-0.4c0.1-0.2,0.2-0.4,0.2-0.6c0.1-0.3,0.1-0.5,0.1-0.8
	c0-0.1,0-0.2,0-0.3v-0.7C213.6,257.8,213.6,257.7,213.6,257.6z"/>
<path class="st16" d="M217.7,260.9c0.1-0.1,0.2-0.2,0.3-0.3c0.1-0.1,0.2-0.3,0.3-0.5c0.1-0.2,0.2-0.4,0.2-0.6
	c0.1-0.2,0.1-0.5,0.1-0.8v-0.5c0,0.1-0.1,0.2-0.2,0.4c-0.1,0.1-0.1,0.3-0.2,0.4c-0.1,0.1-0.2,0.3-0.3,0.4c-0.1,0.1-0.3,0.2-0.4,0.3
	c-0.2,0.1-0.5,0.2-0.7,0.1c-0.2-0.1-0.4-0.2-0.5-0.4c-0.2-0.3-0.3-0.5-0.4-0.8c-0.1-0.4-0.1-0.8-0.1-1.1c0-0.1,0-0.3,0-0.5
	s0-0.4,0-0.5c0-0.4,0.1-0.9,0.1-1.3c0.1-0.4,0.2-0.8,0.4-1.3c0.1-0.4,0.3-0.7,0.5-1c0.2-0.3,0.4-0.5,0.7-0.7
	c0.1-0.1,0.3-0.1,0.4-0.2c0.1,0,0.2,0,0.3,0c0.1,0,0.2,0.1,0.2,0.1c0.1,0,0.1,0.1,0.2,0.2v-0.3c0-0.1,0-0.2,0.1-0.3
	c0-0.1,0.1-0.1,0.1-0.2l0.6-0.4c0,0,0.1,0,0.1,0c0,0.1,0.1,0.1,0.1,0.2v6.5c0,1-0.2,1.9-0.5,2.8c-0.3,0.7-0.8,1.3-1.5,1.7
	c-0.2,0.1-0.5,0.2-0.7,0.2c-0.2,0-0.4,0-0.6-0.1c-0.2-0.1-0.3-0.3-0.4-0.5c-0.1-0.2-0.2-0.5-0.2-0.7c0-0.1,0-0.2,0.1-0.3
	c0-0.1,0.1-0.2,0.1-0.2l0.5-0.3c0-0.1,0.1-0.1,0.2,0c0,0,0,0,0,0c0,0.1,0.1,0.1,0.1,0.2c0.1,0.1,0.2,0.2,0.3,0.2
	C217.3,261.1,217.4,261,217.7,260.9z M216.7,256c0,0.3,0,0.5,0,0.8c0,0.4,0.1,0.8,0.3,1.1c0.2,0.2,0.5,0.2,0.6,0
	c0.3-0.2,0.5-0.5,0.6-0.8c0.2-0.4,0.3-0.9,0.3-1.3c0-0.1,0-0.3,0-0.5s0-0.4,0-0.5c0-0.4-0.1-0.7-0.3-1c-0.2-0.2-0.5-0.2-0.6,0
	c-0.3,0.2-0.5,0.5-0.6,0.8C216.9,255,216.7,255.5,216.7,256L216.7,256z"/>
<path class="st16" d="M222,247.2c0,0,0.1,0,0.1,0c0.1,0.1,0.1,0.1,0.1,0.2v1.1c0,0.1,0,0.2-0.1,0.3c0,0.1-0.1,0.1-0.1,0.2l-0.7,0.4
	c0,0-0.1,0-0.1,0c0,0,0,0,0,0c-0.1-0.1-0.1-0.1-0.1-0.2v-1.1c0-0.1,0-0.2,0.1-0.3c0-0.1,0.1-0.1,0.1-0.2L222,247.2z M222.2,256.6
	c0,0.1,0,0.2-0.1,0.3c0,0.1-0.1,0.1-0.1,0.2l-0.6,0.3c0,0-0.1,0-0.1,0c0,0,0,0,0,0c-0.1-0.1-0.1-0.1-0.1-0.2v-6.5
	c0-0.1,0-0.2,0.1-0.3c0-0.1,0.1-0.1,0.1-0.2l0.6-0.3c0,0,0.1,0,0.1,0c0,0.1,0.1,0.1,0.1,0.2V256.6z"/>
<path class="st16" d="M227.4,253.5c0,0.1,0,0.2-0.1,0.3c0,0.1-0.1,0.1-0.1,0.2l-0.6,0.4c0,0-0.1,0-0.1,0c-0.1-0.1-0.1-0.1-0.1-0.2
	v-3.5c0-0.4,0-0.8-0.2-1.2c-0.1-0.3-0.4-0.3-0.7-0.1c-0.3,0.2-0.5,0.5-0.6,0.9c-0.2,0.5-0.2,1-0.2,1.5v3.5c0,0.1,0,0.2-0.1,0.3
	c0,0.1-0.1,0.2-0.1,0.2l-0.6,0.3c0,0-0.1,0-0.1,0c0,0,0,0,0,0c0-0.1-0.1-0.1-0.1-0.2v-6.5c0-0.1,0-0.2,0.1-0.3
	c0-0.1,0.1-0.2,0.1-0.2l0.6-0.3c0,0,0.1,0,0.1,0c0,0,0,0,0,0c0,0.1,0.1,0.1,0.1,0.2v0.3c0.1-0.3,0.3-0.6,0.5-0.9
	c0.2-0.3,0.4-0.5,0.6-0.6c0.2-0.2,0.5-0.2,0.8-0.2c0.2,0.1,0.4,0.2,0.5,0.4c0.1,0.3,0.2,0.6,0.3,0.9c0.1,0.4,0.1,0.8,0.1,1.2
	L227.4,253.5z"/>
<path class="st14" d="M277.9,224.4l-9.7,5.6l1.5-13.6c-1.2-0.6-1.9-2.1-1.9-4.3c0-3.9,2.4-8.4,5.3-10s5.3,0.1,5.3,4
	c-0.1,2.3-0.7,4.5-1.9,6.5L277.9,224.4z"/>
<polygon class="st15" points="277.9,224.4 269.3,219.5 268.2,230 "/>
<path class="st15" d="M273,202c-2.1,1.4-3.7,3.5-4.5,5.9l7.8,4.5l0,0c1.2-2,1.8-4.2,1.9-6.5C278.3,202.1,275.9,200.4,273,202z"/>
<path class="st2" d="M225.8,156.7c-3.3-1.9-7.9-1.6-13,1.3c-10.1,5.9-18.4,20.1-18.4,31.8c0,5.9,2.1,10,5.4,11.9l6.5,3.8
	c3.3,1.9,7.9,1.6,13-1.3c10.1-5.9,18.4-20.1,18.4-31.8c0-5.9-2.1-10-5.4-11.9"/>
<path class="st2" d="M219.3,161.7c-10.1,5.9-18.4,20.1-18.4,31.8s8.2,16.5,18.4,10.6s18.4-20.1,18.4-31.8S229.4,155.9,219.3,161.7z"
	/>
<path class="st2" d="M229.4,187.7v1.3c-2.4,4.3-5.9,8-10.1,10.6c-3.9,2.3-7.5,2.5-10.1,1.1V198c0.3-5.8,3.4-11.2,8.3-14.3l2.7-1.5
	c2.4-1.4,4.7-1.5,6.5-0.5S229.4,184.9,229.4,187.7z"/>
<path class="st17" d="M225.8,156.7l6.5,3.8c-3.3-1.9-7.9-1.7-13,1.3c-6.6,3.8-12.5,11.3-15.7,19.2l-6.5-3.8c3.2-8,9-15.4,15.7-19.2
	C217.9,155.1,222.5,154.8,225.8,156.7z"/>
<path class="st18" d="M206.1,205.3l-6.2-3.6c-3.3-1.9-5.4-6-5.4-11.9l6.5,3.8C201,199.3,202.9,203.3,206.1,205.3z"/>
<path class="st19" d="M197.1,177.2l6.5,3.8c-1.7,4-2.6,8.3-2.6,12.6l0,0l-6.5-3.8C194.6,185.5,195.5,181.2,197.1,177.2z"/>
<path class="st11" d="M217,181.5c-0.6,0-1.2-0.2-1.8-0.5c-1.3-0.9-2.1-2.4-1.9-4c0.2-3.7,2.1-7.1,5.2-9.1l0,0
	c1.7-1.4,4.2-1.1,5.5,0.6c0.7,0.9,1,2,0.8,3c-0.2,3.7-2.1,7.1-5.2,9.1C218.8,181.2,217.9,181.5,217,181.5z"/>
<path class="st11" d="M226.6,181.6c-1.8-1.1-4.1-0.9-6.5,0.5l-2.7,1.5c-4.9,3.2-8,8.5-8.3,14.3v2.8c2.6,1.4,6.2,1.2,10.1-1.1
	c4.2-2.6,7.7-6.3,10.1-10.6v-1.3C229.4,184.9,228.4,182.7,226.6,181.6z"/>
<g id="freepik--Plants--inject-5">
	<g id="freepik--plants--inject-5">
		<path class="st2" d="M432.1,354.6c0,0,1.3-11.7,7.1-20.8s13.8-14.7,21.2-15.3s13.5,6.3,5.5,11s-22.1,9.5-28.6,27.1L432.1,354.6z"
			/>
		<path class="st19" d="M432.1,354.6c0,0,1.3-11.7,7.1-20.8s13.8-14.7,21.2-15.3s13.5,6.3,5.5,11s-22.1,9.5-28.6,27.1L432.1,354.6z"
			/>
		<path class="st11" d="M434.3,351.6L434.3,351.6c-0.3-0.1-0.4-0.3-0.3-0.5c7.9-19.4,22.8-27.4,29.6-29c0.2,0,0.4,0.1,0.5,0.3
			c0,0.2-0.1,0.4-0.3,0.5l0,0c-6.7,1.5-21.4,9.5-29.1,28.5C434.7,351.6,434.5,351.7,434.3,351.6z"/>
		<path class="st2" d="M474.1,351.8c-0.7,1.5-2.3,2.3-3.9,2.9s-3.2,1.3-4.1,2.7c-1.7,2.9,1.1,7-0.7,9.8c-0.9,1.1-2.1,1.9-3.6,2.1
			c-1.1,0.2-2.3,0.2-3.5,0.3c-0.6,0-1.1-0.1-1.7-0.1c-1.6-0.4-3.3-0.2-4.8,0.5c-2.3,1.3-3,4.2-4.4,6.5c-1.8,2.7-4.6,4.5-7.8,4.9
			c-1,0.1-3,0.3-4-0.3c-0.1,0-0.2-0.1-0.2-0.1l0,0c-0.1-0.2-0.3-0.4-0.4-0.5c0,0,0,0,0-0.1c-0.4-1.5,0.3-3.1,0.3-4.6v-0.3
			c-0.1-1.8-0.1-3.6-0.2-5.4c-0.1-3.3-0.1-6.7-0.1-10c0-2.2-0.2-4.5,0.7-6.5c1-2.2,3.5-2.3,4.5-4.5c0.4-0.9,0.6-1.8,1-2.7
			c1.2-2.6,3.7-4.4,6.6-4.6c4.4-0.2,8.3,3.3,12.7,3c1.1-0.1,2.2-0.4,3.4-0.6c3.5-0.7,7.7,0.3,9.7,3.4
			C474.5,348.8,474.7,350.4,474.1,351.8z"/>
		<path class="st11" d="M434.7,373.5L434.7,373.5c-0.2-0.1-0.3-0.3-0.3-0.5c6.1-22.7,30-26,35.6-25.6c0.2,0,0.4,0.2,0.4,0.4
			c0,0,0,0,0,0c0,0.2-0.2,0.4-0.4,0.3c-5.5-0.4-28.9,2.8-34.9,25.1C435.1,373.5,434.9,373.6,434.7,373.5z"/>
		<path class="st11" d="M461.3,362c-0.1,0-0.1,0-0.2-0.1c-4.5-3.9-10.5-5.6-16.3-4.6c-0.2,0-0.4-0.1-0.4-0.3c0-0.2,0.1-0.4,0.3-0.4
			c6.1-1,12.3,0.7,17,4.8c0.1,0.1,0.1,0.4,0,0.5c0,0,0,0,0,0C461.6,362,461.5,362.1,461.3,362z"/>
	</g>
</g>
<g id="freepik--Clouds--inject-5">
	<g id="freepik--clouds--inject-5">
		<path class="st1" d="M377.1,80l3.2,1.2v-7c0-5.6,4.4-6.9,9.2-4.1l0,0c4.8,2.8,8.7,9.5,8.7,15.1v1c1.4-0.4,2.8-0.2,4,0.6l0,0
			c3.7,2.4,6,6.5,6.3,10.9v0.5l4.4,2.6c2.4,1.6,4,4.2,4.1,7.2c0,2.6-1.9,3.7-4.1,2.4l-35.8-20.7c-2.4-1.6-4-4.2-4.1-7.2
			C373,79.8,374.8,78.7,377.1,80z"/>
		<path class="st1" d="M419.7,74.5l5.8,3.3c0-0.3,0-0.5,0-0.8v-1.7c0-3,2.1-4.2,4.7-2.7c1.1,0.7,2.1,1.6,2.8,2.7
			c0.4-3.7,3.4-5.1,6.9-3.1c4.1,2.7,6.7,7.2,7,12.1v2.5c0,1-0.2,2-0.6,2.9l4.8,2.8c1.5,1,2.5,2.7,2.6,4.5c0,1.7-1.2,2.3-2.6,1.5
			l-31.3-18c-1.5-1-2.5-2.7-2.6-4.5C417.1,74.3,418.3,73.6,419.7,74.5z"/>
	</g>
</g>
<g id="freepik--Character--inject-5">
	<g id="freepik--character--inject-5">
		<path class="st20" d="M397.4,226.2c-4.2,7.1-8.2,13.3-11.1,16.2c-5.4,2.5-18,6.4-23,7c-0.9,0.1-1.7-0.1-2.5-0.6
			c-2-1.3-3.5-1.5-5.5-2.2c-1.6-0.6-2.3-1.3-2.6-1c-0.6,0.8-0.6,1.9,0.2,2.6c0.8,0.7,1.6,1.4,2.5,1.9c-2.2,0.5-4.5,0.6-6.7,0.1
			c-4.3-1.1-6.3,0.9-3.4,5.6c1,1.7,5.1,4.3,13.4,3.6c3-0.2,5.9-0.5,8.8-1c7.9-1.7,16.8-3.3,22.2-5c2-0.8,3.8-2,5.3-3.7
			c9.1-10.4,12.2-17.8,16.2-24.6l-0.3-11C404.3,214,400.9,220.3,397.4,226.2z"/>
		<path class="st14" d="M411.9,214c-3.8-0.5-7.6,1.1-9.9,4.2c-4.4,5.7-12.3,19.4-12.3,19.4s2.6,6.9,9.5,8l11.1-15.1
			C410.4,230.5,415.7,220.1,411.9,214z"/>
		<rect x="428.8" y="367.5" class="st20" width="7.3" height="13"/>
		<polygon class="st20" points="410.8,366.9 403.6,367.1 403.2,353.4 410.8,353.1 		"/>
		<path class="st15" d="M437.1,255.3c0,7.2-1.1,65.4-1.1,65.4c0.2,2.1,2,5.9,1.6,13.9c-0.5,10.9-1.3,39.4-1.3,39.4
			c-2.5,1.3-5.5,1.4-8.1,0.2c0,0-5.9-40-7.2-50.7c-1.1-9.4-4.1-40.5-4.1-40.5l-3.9,36.7c0.8,3.9,1.1,8,0.9,12
			c-0.3,5-2.7,30.9-2.7,30.9c-2.5,1.5-5.6,1.7-8.4,0.7c0,0-4.1-39-4.2-43.6c-0.1-5.2,2.4-64.4,2.4-64.4L437.1,255.3z"/>
		<path class="st6" d="M428.8,376.8v-1.1c-0.7,0.3-2.3,6.7-5.2,9.5c-2.3,2.2-5.4,4.7-6.2,7.1s4.4,3.9,6.5,3.5c2.5-0.5,6.8-2.3,7.9-4
			s1.6-4.2,2.5-5.4s2.9-2.6,3.4-4.1c0.1-1.3,0-2.7-0.4-4c-0.3-1.3-0.7-2.8-1.1-2.7v0.8c-1,0.8-2.3,1.3-3.6,1.3
			C431.3,377.8,428.8,377.6,428.8,376.8z"/>
		<path class="st6" d="M403.5,364.8c-0.4,0-0.7,0.6-1.5,1.5c-1.2,1.3-2.7,2.4-4.3,3.2c-2.7,1.4-8,3.6-10.4,4.7
			c-1.5,0.7-1.4,2.6,0.1,3.6s5.3,1.8,9.8,0.8c2.4-0.6,5.6-2.9,7.6-2.8s5.8,0.1,7.3-1s0.9-3.4,0.5-5.3c-0.5-2.1-1-5.5-1.7-5.3v0.8
			c-0.9,1.4-5.4,1.9-7.3,0.9L403.5,364.8z"/>
		<path class="st6" d="M417,283c-3.8-1.2-7.2-3.3-10.1-6c0,0,2,3.8,7.8,7.4l-1.2,32.8L417,283z"/>
		<path class="st2" d="M433,215.1c0,0,6,1.4,5.6,12.2l-1.3,17.3v25.9c-5.3,6.1-29,5.6-37.1-0.5c0,0,0.9-30.7,1.5-42.5
			c0.4-8.4,2.3-12.6,10.6-13.5l10.1,0.4L433,215.1z"/>
		<path class="st6" d="M425.4,192.5c0.1,6.1-4.7,11.1-10.7,11.3c0,0-0.1,0-0.1,0c-6,0-9.5-5.2-10.8-11.3
			c-2.4-11.1,4.8-11.3,10.8-11.3C420.6,181.4,425.5,186.4,425.4,192.5z"/>
		<path class="st6" d="M430.9,197.1c0,0-1.7,8.1-2.3,9.5c-0.4,0.8-1.1,1.4-2,1.7l0.1-5.7L430.9,197.1z"/>
		<path class="st6" d="M428.8,185.5c0,0,1.2-0.3,2.5,1.7c1.1,1.7,1.3,5.5-0.4,10l-3.1,0.4L428.8,185.5z"/>
		<path class="st6" d="M429.9,187.1l3.8,0.1c0.1-1-0.6-1.9-1.6-2c0,0-0.1,0-0.1,0C430.9,185.2,430,186,429.9,187.1z"/>
		<path class="st6" d="M430.4,186.2l2.8-2.7c-0.7-0.8-1.8-0.9-2.6-0.2c0,0-0.1,0.1-0.1,0.1C429.8,184.1,429.7,185.4,430.4,186.2z"/>
		<path class="st20" d="M426.8,197.5c0.6,0.4,1.5-0.9,2.3-1.7s3.2-1.6,4.5,1.1s-0.9,5.5-2.7,6.4c-3.2,1.6-4.3-0.7-4.3-0.7l-0.3,12.9
			c-4.5,7-14.8,6.8-11.1-0.3v-3.9c-1.5,0.3-3.1,0.3-4.6,0.2c-2.5-0.4-4.1-2.5-4.9-5.3c-1.2-4.6-1.7-8.2-0.6-17.2
			c1.1-9.8,12.1-9.9,18-6S426.8,197.5,426.8,197.5z"/>
		<path class="st6" d="M413.1,187.3c2.6-0.3,5.2-0.8,7.8-1c0.6-0.1,1.1,0,1.7,0.1c2,0.6,1.8,2.9,2.1,4.5c0.5,2.8,1,7.6,2.1,7.6
			c0.3,0,1.5-2.1,2.3-2.8c0.4-0.6,0.7-1.4,0.7-2.1c0.2-1.2,0.3-2.4,0.4-3.5c0.1-1,0.2-2,0.2-3c0-1.1,0-2.3-0.3-3.4
			c-0.3-0.9-0.7-1.8-1.4-2.5l-0.2-0.2c-1.3-1.4-2.9-2.5-4.7-3.2c-2.5-1-5.2-1.5-7.9-1.7c-2.7-0.2-5.4-0.5-8.1-1c-0.2,0-0.3,0-0.5,0
			c-0.2,0.1-0.4,0.3-0.4,0.6c-0.2,1.3,0.3,2.6,1.4,3.3c-1.8,0.1-3.9-0.8-5.6-1.3c-0.3-0.1-0.6-0.1-0.9,0c-0.2,0.1-0.3,0.3-0.4,0.5
			c-0.1,0.5-0.1,1,0,1.4c0.2,1.4,0.7,2.8,1.6,4c1.3,1.8,3.3,3,5.4,3.5C409.9,187.5,411.5,187.5,413.1,187.3z"/>
		<path class="st21" d="M415.2,211.2c0,0,5.6-1.2,7.6-2.3c1.2-0.6,2.1-1.6,2.7-2.8c-0.3,1.2-0.8,2.3-1.5,3.3
			c-1.4,1.9-8.8,3.3-8.8,3.3V211.2z"/>
		<path class="st6" d="M416.6,196c0,0.6,0.5,1.2,1.1,1.2c0.7,0.1,1.3-0.4,1.3-1.1s-0.4-1.3-1.1-1.3s-1.3,0.4-1.3,1.1
			C416.6,195.9,416.6,196,416.6,196z"/>
		<path class="st6" d="M418.4,191.1l2.4,1.4c0.4-0.7,0.1-1.6-0.6-2c-0.6-0.4-1.4-0.1-1.8,0.5C418.4,191.1,418.4,191.1,418.4,191.1z"
			/>
		<path class="st21" d="M415.7,204.1l-2.6,1c0.2,0.7,1,1.1,1.7,0.9c0,0,0.1,0,0.1,0C415.6,205.7,416,204.9,415.7,204.1z"/>
		<path class="st6" d="M406.3,192.2l2.2-1.8c-0.4-0.6-1.2-0.8-1.8-0.4c0,0-0.1,0.1-0.1,0.1C405.9,190.6,405.8,191.5,406.3,192.2z"/>
		<path class="st6" d="M407.2,195.7c0,0.6,0.6,1.1,1.2,1c0.6,0,1.1-0.6,1-1.2c0-0.6-0.5-1-1.1-1C407.7,194.5,407.2,195,407.2,195.7
			C407.2,195.7,407.2,195.7,407.2,195.7z"/>
		<polygon class="st21" points="413.3,194.7 413.1,201.8 409.1,200.9 		"/>
		<polyline class="st2" points="317.3,254.3 323.6,250.7 326.1,247.6 319.8,251.3 317.3,254.3 		"/>
		<polyline class="st22" points="317.3,254.3 323.6,250.7 326.1,247.6 319.8,251.3 317.3,254.3 		"/>
		<polyline class="st2" points="334.4,264.1 340.6,260.5 345.9,255.9 339.6,259.5 334.4,264.1 		"/>
		<polyline class="st22" points="334.4,264.1 340.6,260.5 345.9,255.9 339.6,259.5 334.4,264.1 		"/>
		<path class="st2" d="M387.6,276.6c1.5,2,2.4,4.3,2.6,6.8C388.7,281.4,387.8,279.1,387.6,276.6z M402.2,276.8
			c-2.1-14.4-9.8-28.5-19-33.9c-4.4-2.6-8.5-2.6-11.8-0.7l-5.9,3.4l-0.3,0.2c-0.3,0.1-0.5,0.3-0.8,0.5c-0.5,0.3-0.9,0.7-1.4,1.1
			l-0.2,0.2c-0.2,0.2-0.4,0.4-0.5,0.6s-0.4,0.5-0.6,0.8c-0.4,0.6-0.8,1.1-1.1,1.8c-0.2,0.3-0.4,0.6-0.5,1L308.5,222l-6.3,3.6v4
			l0.5,0.3l0.5,0.3v0.8l-1,0.6v2.3l7.6,16l7.5,4.3l2.5-3l6.6,3.9l3.8,6.5l4.2,2.4l5.2-4.6l6.4,3.7l2.2,8.9l10.8,6.2
			c0.5,2.3,1.2,4.5,2,6.7c0.1,0.2,0.2,0.5,0.3,0.7c3.6,9.4,9.3,17.5,15.7,21.2c0.8,0.5,1.6,0.8,2.4,1.2c0.4,0.2,0.9,0.3,1.4,0.5
			c0.4,0.1,0.8,0.2,1.2,0.3c1.3,0.2,2.6,0.2,3.8,0l0.5-0.1c0.2-0.1,0.5-0.1,0.7-0.2l0.6-0.2c0.2-0.1,0.4-0.2,0.6-0.3
			c0.2-0.1,0.4-0.2,0.5-0.3l0.3-0.2c0,0,0.1,0,0.1-0.1c1.4-0.8,5-2.9,5.9-3.4c4.8-2.8,7.8-9.7,7.8-19.6
			C402.8,281.9,402.6,279.3,402.2,276.8z"/>
		<path class="st2" d="M385.8,288.7c-2.5-1.4-4.5-5.7-4.5-9.5s2-5.7,4.5-4.3s4.5,5.7,4.5,9.5S388.3,290.1,385.8,288.7z M395.9,280.4
			c-2.1-14.3-9.8-28.5-19-33.8c-4.3-2.5-8.2-2.6-11.4-0.9l-0.3,0.2c-0.3,0.1-0.5,0.3-0.8,0.5c-0.5,0.3-0.9,0.7-1.4,1.1l-0.2,0.2
			c-0.2,0.2-0.4,0.4-0.5,0.6s-0.4,0.5-0.6,0.8c-0.4,0.6-0.8,1.1-1.1,1.8c-0.2,0.3-0.4,0.6-0.5,1c-0.9,1.9-1.6,4-2,6.1l-55.8-32.2v4
			l0.5,0.3l0.5,0.3v0.8l-1,0.6v2.3l7.6,16l7.5,4.3l2.5-3l6.6,3.9l3.8,6.5l4.2,2.4l5.2-4.6l6.4,3.7l2.2,8.9l10.8,6.2
			c0.5,2.3,1.2,4.5,2,6.7c0.1,0.2,0.2,0.5,0.3,0.7c3.6,9.4,9.3,17.5,15.7,21.2c0.8,0.5,1.6,0.8,2.4,1.2c0.4,0.2,0.9,0.3,1.4,0.5
			c0.4,0.1,0.8,0.2,1.2,0.3c1.3,0.2,2.6,0.2,3.8,0l0.5-0.1c0.2-0.1,0.5-0.1,0.7-0.2l0.6-0.2c0.2-0.1,0.4-0.2,0.6-0.3
			c0.2-0.1,0.4-0.2,0.5-0.3l0.3-0.2c0,0,0.1,0,0.1-0.1c4.6-2.9,7.5-9.8,7.5-19.4C396.5,285.5,396.3,282.9,395.9,280.4z"/>
		<path class="st22" d="M390.3,284.4c0,3.8-2,5.7-4.5,4.3s-4.5-5.7-4.5-9.5s2-5.7,4.5-4.3c0.7,0.4,1.3,1,1.8,1.7
			c0.2,2.5,1.1,4.8,2.6,6.8C390.2,283.8,390.3,284.1,390.3,284.4z"/>
		<path class="st17" d="M402.8,284.4c0,9.9-3.1,16.9-7.8,19.6c-1,0.5-4.5,2.6-5.9,3.4c4.6-2.9,7.5-9.8,7.5-19.4
			c0-2.5-0.2-5.1-0.6-7.6c-2.1-14.3-9.8-28.5-19-33.8c-4.3-2.5-8.2-2.6-11.4-0.9l5.9-3.4c3.3-1.9,7.4-1.8,11.8,0.7
			c9.2,5.3,16.9,19.5,19,33.9C402.6,279.3,402.8,281.9,402.8,284.4z"/>
		<path class="st2" d="M396.5,288c0,9.6-2.9,16.5-7.5,19.4c1.4-0.8,5-2.9,5.9-3.4c4.8-2.8,7.8-9.7,7.8-19.6c0-0.4,0-0.7,0-1.1
			l-6.3,3.6C396.5,287.3,396.5,287.6,396.5,288z"/>
		<path class="st19" d="M396.5,288c0,9.6-2.9,16.5-7.5,19.4c1.4-0.8,5-2.9,5.9-3.4c4.8-2.8,7.8-9.7,7.8-19.6c0-0.4,0-0.7,0-1.1
			l-6.3,3.6C396.5,287.3,396.5,287.6,396.5,288z"/>
		<polygon class="st12" points="358.3,261.9 358.3,264 302.3,231.6 303.3,231 303.3,230.2 		"/>
		<polygon class="st12" points="358.3,262.8 358.3,264 302.3,231.6 303.3,231 303.3,231 		"/>
		<path class="st12" d="M382.6,304c-2.1-0.1-4.2-0.7-6-1.8c-9.1-5.3-16.6-21-16.6-35c0-8.2,2.5-14.3,6.8-16.8
			c3-1.7,6.5-1.5,10.3,0.6c9.1,5.3,16.5,21,16.5,35c0,8.2-2.5,14.3-6.8,16.8C385.6,303.6,384.1,304,382.6,304z M371.2,250.3
			c-1.3,0-2.6,0.3-3.8,1c-3.9,2.3-6.3,8.2-6.3,15.9c0,13.7,7.2,29,16.1,34.1c3.4,2,6.6,2.2,9.3,0.6c3.9-2.3,6.3-8.2,6.3-15.9
			c0-13.7-7.2-29-16-34.1C375,251,373.1,250.4,371.2,250.3L371.2,250.3z"/>
		<path class="st17" d="M360,251.7c-0.9,1.9-1.6,4-2,6.1l-55.8-32.2l6.3-3.6L360,251.7z"/>
		<path class="st20" d="M432.5,254.8c2.9-5.5,6.3-17.9,7.9-24.2c2.4-8.9-1.5-14.5-5.8-14.7c-2.7,0.4-11.6,32.9-11.6,32.9
			c-1,0.8-14.6,7.7-18.9,9.4c-0.8,0.3-1.6,0.3-2.4,0c-2.1-0.8-3.5-0.6-5.6-0.8c-1.6-0.2-2.4-0.7-2.6-0.4c-0.4,0.9-0.1,1.9,0.8,2.4
			c0.9,0.5,1.8,0.9,2.8,1.2c-1.8,0.5-3.6,0.8-5.4,0.7c-4.2-0.1-5.7,1.7-2.5,6c2,2.7,5.3,3.5,12.7,1c2.1-0.7,5-2.2,7.7-3.1
			c5.5-2,7-2.2,11.2-3.7C426.9,259.4,431.2,257.3,432.5,254.8z"/>
		<path class="st14" d="M433,215.1c2.5,0.4,5,0.9,6.5,3s2.7,5,1.2,12.9c-1.1,5.6-2.7,11.1-4.5,16.5c0,0-5.9,2.5-12.3-3.9l4.3-16.8
			C428.3,226.8,429,215.9,433,215.1z"/>
	</g>
</g>
</svg>
